<svg width="15" height="14" viewBox="0 0 15 14" fill="none" xmlns="http://www.w3.org/2000/svg">
<path d="M13.3333 6.35851V2.39184C13.3333 1.51684 12.96 1.16684 12.0325 1.16684H9.67583C8.74833 1.16684 8.375 1.51684 8.375 2.39184V6.35851C8.375 7.23351 8.74833 7.58351 9.67583 7.58351H12.0325C12.96 7.58351 13.3333 7.23351 13.3333 6.35851Z" stroke="#EB4C6B" stroke-width="0.875" stroke-linecap="round" stroke-linejoin="round"/>
<path d="M13.3333 11.6082V10.5582C13.3333 9.68316 12.96 9.33316 12.0325 9.33316H9.67583C8.74833 9.33316 8.375 9.68316 8.375 10.5582V11.6082C8.375 12.4832 8.74833 12.8332 9.67583 12.8332H12.0325C12.96 12.8332 13.3333 12.4832 13.3333 11.6082Z" stroke="#EB4C6B" stroke-width="0.875" stroke-linecap="round" stroke-linejoin="round"/>
<path d="M6.62435 7.64199V11.6087C6.62435 12.4837 6.25102 12.8337 5.32352 12.8337H2.96685C2.03935 12.8337 1.66602 12.4837 1.66602 11.6087V7.64199C1.66602 6.76699 2.03935 6.41699 2.96685 6.41699H5.32352C6.25102 6.41699 6.62435 6.76699 6.62435 7.64199Z" stroke="#EB4C6B" stroke-width="0.875" stroke-linecap="round" stroke-linejoin="round"/>
<path d="M6.62435 2.39199V3.44199C6.62435 4.31699 6.25102 4.66699 5.32352 4.66699H2.96685C2.03935 4.66699 1.66602 4.31699 1.66602 3.44199V2.39199C1.66602 1.51699 2.03935 1.16699 2.96685 1.16699H5.32352C6.25102 1.16699 6.62435 1.51699 6.62435 2.39199Z" stroke="#EB4C6B" stroke-width="0.875" stroke-linecap="round" stroke-linejoin="round"/>
</svg>
