<svg width="50" height="30" viewBox="0 0 50 30" fill="none" xmlns="http://www.w3.org/2000/svg">
<rect x="0.446429" y="0.446429" width="49.1071" height="29.1071" rx="4.01786" fill="white" stroke="#FFF2F5" stroke-width="0.892857"/>
<path d="M19.6647 23.1875C24.6087 23.1875 28.6165 19.3399 28.6165 14.5937C28.6165 9.84754 24.6087 6 19.6647 6C14.7208 6 10.7129 9.84754 10.7129 14.5937C10.7129 19.3399 14.7208 23.1875 19.6647 23.1875Z" fill="#EB001B"/>
<path d="M29.8952 23.1875C34.8391 23.1875 38.847 19.3399 38.847 14.5937C38.847 9.84754 34.8391 6 29.8952 6C24.9512 6 20.9434 9.84754 20.9434 14.5937C20.9434 19.3399 24.9512 23.1875 29.8952 23.1875Z" fill="#F79E1B"/>
<path d="M28.6164 14.5922C28.6164 11.6458 27.0818 9.06769 24.7799 7.59448C22.478 9.19046 20.9434 11.7686 20.9434 14.5922C20.9434 17.4159 22.478 20.1168 24.7799 21.59C27.0818 20.1168 28.6164 17.5387 28.6164 14.5922Z" fill="#FF5F00"/>
</svg>
