<svg width="51" height="30" viewBox="0 0 51 30" fill="none" xmlns="http://www.w3.org/2000/svg">
<rect x="0.455357" y="0.455357" width="50.0893" height="29.0893" rx="4.09821" fill="white" stroke="#FFF2F5" stroke-width="0.910714"/>
<path d="M24.2478 15.1155V19.044H22.9199V9.3454H26.4301C26.8507 9.3387 27.2685 9.41031 27.6596 9.5561C28.0507 9.7019 28.4073 9.91901 28.7089 10.195C28.9946 10.4459 29.225 10.7473 29.3868 11.0821C29.5487 11.4169 29.6388 11.7784 29.6522 12.146C29.6655 12.5136 29.6017 12.88 29.4645 13.2244C29.3272 13.5688 29.1192 13.8843 28.8524 14.153L28.7089 14.2954C28.0958 14.8442 27.2766 15.1425 26.4301 15.1228L24.2478 15.1155ZM24.2478 10.5338V13.9565H26.4627C26.9545 13.9713 27.4293 13.7908 27.7736 13.4606C28.0199 13.2189 28.1853 12.9145 28.2493 12.585C28.3132 12.2556 28.2727 11.9158 28.133 11.6078C27.9933 11.2998 27.7605 11.0373 27.4635 10.8529C27.1665 10.6685 26.8185 10.5703 26.4627 10.5706L24.2478 10.5338ZM32.7056 12.1887C33.5535 12.1519 34.3831 12.4195 35.0248 12.9413C35.6053 13.4692 35.9144 14.2058 35.8727 14.9657V19.0588H34.6087V18.1184H34.5448C34.3181 18.4711 33.9976 18.762 33.6149 18.9625C33.2322 19.1629 32.8005 19.2659 32.3625 19.2613C31.6476 19.2831 30.9504 19.0493 30.4111 18.607C30.1556 18.4108 29.9509 18.1626 29.8124 17.881C29.6738 17.5994 29.6052 17.2918 29.6115 16.9815C29.5965 16.668 29.6612 16.3556 29.8003 16.0703C29.9393 15.785 30.1488 15.5351 30.4111 15.3414C31.0548 14.9057 31.8337 14.6834 32.626 14.7091C33.3004 14.6846 33.9696 14.8233 34.5696 15.1155V14.8601C34.574 14.649 34.5273 14.4397 34.4331 14.248C34.3388 14.0564 34.1995 13.8875 34.0257 13.754C33.6765 13.4552 33.2191 13.2936 32.7473 13.3022C32.4047 13.2992 32.0669 13.3784 31.7658 13.5324C31.4648 13.6864 31.2104 13.9102 31.0268 14.1824L29.8594 13.49C30.1764 13.0626 30.6043 12.7186 31.1026 12.4908C31.6008 12.263 32.1526 12.159 32.7056 12.1887ZM31.0268 17.011C31.0237 17.17 31.0621 17.3273 31.1388 17.469C31.2154 17.6108 31.328 17.7326 31.4664 17.8237C31.7573 18.0398 32.1186 18.154 32.4904 18.1466C33.05 18.1454 33.5861 17.9379 33.9852 17.5671C34.3831 17.216 34.6087 16.7262 34.6087 16.213C34.1066 15.877 33.4964 15.7148 32.8817 15.7539C32.4044 15.7362 31.9336 15.8627 31.5381 16.1148C31.3815 16.2134 31.253 16.3467 31.1639 16.503C31.0747 16.6592 31.0277 16.8337 31.0268 17.011ZM43.1396 12.4072L38.7176 21.9708H37.3506L39.0215 18.6217L36.1205 12.4072H37.5593L39.662 17.1767L41.7086 12.4072H43.1396Z" fill="#5F6368"/>
<path d="M18.8904 14.2679C18.8904 13.8898 18.859 13.5116 18.7951 13.1384H13.1992V15.2832H16.3963C16.3312 15.624 16.1937 15.949 15.992 16.2387C15.7903 16.5283 15.5285 16.7766 15.2224 16.9688V18.361H17.132C17.7127 17.8322 18.1691 17.1948 18.472 16.4898C18.7748 15.7848 18.9174 15.0279 18.8904 14.2679Z" fill="#4285F4"/>
<path d="M13.2073 19.7134C14.6504 19.7507 16.0544 19.2691 17.1336 18.3666L15.2213 16.9671C14.7619 17.2443 14.2413 17.4193 13.6991 17.4788C13.157 17.5382 12.6076 17.4805 12.0927 17.3101C11.5778 17.1396 11.111 16.8609 10.7278 16.4951C10.3445 16.1294 10.055 15.6862 9.8811 15.1992H7.92188V16.6356C8.41214 17.5601 9.16634 18.3377 10.0999 18.8814C11.0335 19.425 12.1095 19.7131 13.2073 19.7134Z" fill="#34A853"/>
<path d="M9.88169 15.209C9.63358 14.5182 9.63358 13.7698 9.88169 13.079V11.6426H7.92247C7.50478 12.4178 7.28711 13.2748 7.28711 14.144C7.28711 15.0132 7.50478 15.8701 7.92247 16.6454L9.88169 15.209Z" fill="#FBBC04"/>
<path d="M13.2073 10.7772C14.0513 10.7627 14.8671 11.0628 15.477 11.612L17.1727 10.0247C16.0915 9.06953 14.6574 8.54856 13.1747 8.57231C12.0834 8.57746 11.0149 8.86696 10.0878 9.4087C9.16057 9.95044 8.41091 10.7233 7.92188 11.6415L9.8811 13.0791C10.1102 12.4163 10.5543 11.8377 11.1509 11.4248C11.7476 11.0119 12.4668 10.7854 13.2073 10.7772Z" fill="#EA4335"/>
</svg>
