<svg width="51" height="30" viewBox="0 0 51 30" fill="none" xmlns="http://www.w3.org/2000/svg">
<rect x="0.455357" y="0.455357" width="50.0893" height="29.0893" rx="4.09821" fill="white" stroke="#FFF2F5" stroke-width="0.910714"/>
<path d="M31.3315 11.0168C31.5965 9.75634 31.3315 8.87398 30.5364 8.11768C29.7414 7.23533 28.2838 6.85718 26.4286 6.85718H20.9956C20.5981 6.85718 20.3331 7.10928 20.2006 7.48743L18.2129 20.2185C18.2129 20.4706 18.3454 20.7227 18.6104 20.7227H22.1882L22.7183 16.437L25.1035 13.6639L31.3315 11.0168Z" fill="#003087"/>
<path d="M31.3315 11.0156L31.0665 11.2677C30.404 14.7971 28.1513 16.0576 24.971 16.0576H23.5134C23.1158 16.0576 22.8508 16.3097 22.7183 16.6879L21.9232 21.6039L21.6582 22.8644C21.6582 23.1165 21.7907 23.3686 22.0557 23.3686H24.8385C25.236 23.3686 25.501 23.1165 25.501 22.8644V22.7383L26.0311 19.7131V19.5871C26.0311 19.335 26.4286 19.0829 26.6936 19.0829H27.0912C29.8739 19.0829 31.9941 18.0744 32.5241 15.0492C32.7892 13.7887 32.6566 12.7803 31.9941 12.024C31.8616 11.3938 31.5966 11.1417 31.3315 11.0156Z" fill="#3086C8"/>
<path d="M30.5369 10.7649C30.4044 10.6388 30.2719 10.6388 30.1394 10.6388C30.0069 10.6388 29.8744 10.6388 29.7419 10.5128C29.3443 10.3867 28.8143 10.3867 28.2842 10.3867H24.3089C24.1764 10.3867 24.0439 10.3867 24.0439 10.5128C23.7788 10.6388 23.6463 10.7649 23.6463 11.017L22.7188 16.5632V16.6892C22.7188 16.3111 23.1163 16.059 23.5138 16.059H25.2365C28.5492 16.059 30.6694 14.7985 31.332 11.2691V11.017C31.1995 10.8909 30.9345 10.7649 30.6694 10.7649H30.5369Z" fill="#012169"/>
</svg>
