<svg width="50" height="30" viewBox="0 0 50 30" fill="none" xmlns="http://www.w3.org/2000/svg">
<rect x="0.446429" y="0.446429" width="49.1071" height="29.1071" rx="4.01786" fill="#5A31F4" stroke="#FFF2F5" stroke-width="0.892857"/>
<path d="M28.3336 11.7818C28.3336 13.8296 26.8284 15.2905 24.726 15.2905H22.7451C22.7124 15.291 22.6805 15.3005 22.6533 15.3179C22.626 15.3353 22.6046 15.3599 22.5916 15.3887C22.5832 15.4078 22.5789 15.4282 22.5788 15.4489V18.14C22.5788 18.1609 22.5745 18.1816 22.5661 18.2008C22.5578 18.2201 22.5455 18.2377 22.5301 18.2524C22.5146 18.2671 22.4963 18.2787 22.4761 18.2866C22.4559 18.2945 22.4343 18.2985 22.4126 18.2983H21.0263C20.9822 18.2983 20.9399 18.2815 20.9088 18.2516C20.8776 18.2217 20.8601 18.1811 20.8601 18.1387V8.43396C20.8595 8.40234 20.8691 8.37131 20.8873 8.345C20.9056 8.31869 20.9318 8.29834 20.9624 8.28664C20.9826 8.2785 21.0044 8.27433 21.0263 8.27436H24.7349C26.8284 8.27436 28.3336 9.73407 28.3336 11.7818ZM26.6046 11.7818C26.6046 10.6057 25.7631 9.74634 24.6224 9.74634H22.7451C22.7232 9.74634 22.7016 9.75047 22.6814 9.75849C22.6613 9.76651 22.643 9.77827 22.6275 9.79309C22.6121 9.80791 22.5998 9.8255 22.5915 9.84486C22.5831 9.86423 22.5788 9.88498 22.5788 9.90594V13.6503C22.5786 13.6713 22.5828 13.6922 22.5911 13.7116C22.5995 13.731 22.6118 13.7486 22.6274 13.7633C22.6428 13.7782 22.6612 13.7899 22.6814 13.798C22.7016 13.806 22.7232 13.81 22.7451 13.8099H24.6224C25.7631 13.8161 26.6046 12.9567 26.6046 11.7818ZM28.7453 16.4359C28.7307 16.1214 28.7989 15.8084 28.9435 15.5259C29.0881 15.2433 29.3045 15.0002 29.5728 14.8191C30.1137 14.4312 30.959 14.2298 32.2008 14.1881L33.5218 14.1439V13.7719C33.5218 13.0267 32.9975 12.7124 32.156 12.7124C31.3145 12.7124 30.7812 12.996 30.6598 13.4613C30.6494 13.494 30.6282 13.5225 30.5993 13.5425C30.5704 13.5624 30.5355 13.5727 30.4999 13.5718H29.1929C29.157 13.5722 29.1218 13.5615 29.0928 13.5411C29.0637 13.5207 29.0423 13.4919 29.0318 13.4588C29.0249 13.437 29.0231 13.4139 29.0267 13.3913C29.2211 12.2889 30.1828 11.4516 32.2161 11.4516C34.3799 11.4516 35.1612 12.4129 35.1612 14.2458V18.14C35.1611 18.161 35.1566 18.1818 35.148 18.2012C35.1394 18.2206 35.1269 18.2382 35.1112 18.2529C35.0955 18.2676 35.0769 18.2792 35.0566 18.287C35.0362 18.2948 35.0144 18.2987 34.9924 18.2983H33.6752C33.6312 18.2983 33.5889 18.2815 33.5577 18.2516C33.5265 18.2217 33.509 18.1811 33.509 18.1387V17.849C33.5094 17.825 33.5022 17.8014 33.4882 17.7814C33.4743 17.7614 33.4543 17.746 33.431 17.7373C33.4079 17.7286 33.3827 17.7265 33.3584 17.7313C33.3341 17.7361 33.3118 17.7475 33.2942 17.7643C32.8977 18.1743 32.2609 18.4702 31.2391 18.4702C29.7364 18.4702 28.7453 17.725 28.7453 16.4359ZM33.5218 15.5925V15.2905L31.8094 15.3765C30.9079 15.4207 30.3835 15.7767 30.3835 16.3782C30.3835 16.9233 30.8644 17.2253 31.7058 17.2253C32.8478 17.2253 33.5218 16.6361 33.5218 15.5925ZM36.4836 21.2398V20.1116C36.4839 20.088 36.4897 20.0647 36.5005 20.0435C36.5113 20.0222 36.527 20.0036 36.5462 19.9888C36.5653 19.974 36.5876 19.9633 36.6115 19.9576C36.6353 19.9519 36.6602 19.9512 36.6843 19.9557C36.8864 19.9913 37.091 20.0097 37.2969 20.0097C37.6496 20.0283 37.9984 19.9322 38.2873 19.7371C38.5761 19.542 38.7881 19.2592 38.889 18.9343L38.9747 18.6752C38.9875 18.6403 38.9875 18.6022 38.9747 18.5672L36.2316 11.8506C36.2157 11.8137 36.2148 11.7725 36.229 11.735C36.2432 11.6975 36.2715 11.6665 36.3084 11.648C36.3328 11.6356 36.36 11.6293 36.3876 11.6296H37.7176C37.7518 11.6297 37.7851 11.6397 37.8132 11.6583C37.8412 11.677 37.8628 11.7033 37.8749 11.7339L39.7369 16.4715C39.7484 16.5034 39.77 16.5309 39.7987 16.5503C39.8274 16.5697 39.8617 16.5799 39.8968 16.5796C39.9317 16.5795 39.9659 16.5691 39.9945 16.5498C40.0231 16.5305 40.0448 16.5031 40.0566 16.4715L41.6743 11.7475C41.6853 11.7149 41.7069 11.6866 41.7359 11.6667C41.7649 11.6468 41.7998 11.6364 41.8355 11.637H43.2115C43.2528 11.6372 43.2926 11.6517 43.3236 11.6779C43.3546 11.7041 43.3748 11.7401 43.3803 11.7794C43.3834 11.8056 43.3799 11.8321 43.3701 11.8567L40.4351 19.3161C39.7599 21.0508 38.6026 21.4927 37.3276 21.4927C37.0856 21.4991 36.844 21.4719 36.6102 21.4117C36.571 21.4025 36.5365 21.3801 36.513 21.3485C36.4896 21.317 36.4799 21.2784 36.4836 21.2398ZM11.9492 7.71454C10.2042 7.70202 8.51988 8.32851 7.23923 9.46643C7.18474 9.51401 7.15072 9.57942 7.14386 9.64982C7.137 9.72023 7.15779 9.79056 7.20215 9.84701L7.99246 10.877C8.01807 10.9118 8.05133 10.9407 8.08989 10.9616C8.12844 10.9826 8.17134 10.9952 8.21553 10.9985C8.25972 11.0018 8.30412 10.9957 8.34558 10.9806C8.38704 10.9656 8.42453 10.9419 8.4554 10.9114C8.91568 10.4726 9.46232 10.1262 10.0635 9.89221C10.6646 9.65826 11.3082 9.54148 11.9568 9.54869C14.668 9.54869 16.0836 11.4933 16.0836 13.4159C16.0836 15.5029 14.5964 16.9737 12.4581 17.0019C10.8059 17.0019 9.56031 15.9584 9.56031 14.5785C9.56173 14.2295 9.64433 13.8853 9.80209 13.571C9.95984 13.2566 10.1888 12.9801 10.4721 12.7615C10.5325 12.714 10.5708 12.6455 10.5787 12.571C10.5866 12.4965 10.5634 12.422 10.5143 12.3637L9.68308 11.3632C9.65798 11.3324 9.62666 11.3069 9.59101 11.288C9.55535 11.2692 9.51609 11.2574 9.47559 11.2536C9.43509 11.2497 9.39419 11.2537 9.35535 11.2653C9.3165 11.277 9.28052 11.2961 9.24956 11.3214C8.74045 11.7135 8.3289 12.2097 8.0449 12.7738C7.76191 13.3367 7.61461 13.9535 7.61393 14.5785C7.61393 16.954 9.7304 18.8164 12.4415 18.8311H12.4799C15.6987 18.7919 18.0262 16.5182 18.0262 13.411C18.0262 10.6524 15.8944 7.71454 11.9492 7.71454Z" fill="white"/>
</svg>
