<svg width="51" height="30" viewBox="0 0 51 30" fill="none" xmlns="http://www.w3.org/2000/svg">
<rect x="0.455357" y="0.455357" width="50.0893" height="29.0893" rx="4.09821" fill="white" stroke="#FFF2F5" stroke-width="0.910714"/>
<path d="M13.9421 9.52728C14.3569 9.03929 14.6382 8.38391 14.564 7.71436C13.9572 7.74272 13.2168 8.09112 12.7879 8.57967C12.4029 8.99786 12.0623 9.68049 12.1509 10.322C12.8322 10.3776 13.5129 10.0016 13.9421 9.52728Z" fill="black"/>
<path d="M14.556 10.4473C13.5663 10.3917 12.7255 10.9756 12.2531 10.9756C11.7804 10.9756 11.0569 10.4751 10.2742 10.4888C9.25588 10.5027 8.31108 11.0449 7.79407 11.9069C6.73109 13.6308 7.5134 16.1889 8.54743 17.5931C9.04937 18.2882 9.65442 19.0529 10.4515 19.0254C11.2049 18.9976 11.5 18.5666 12.4153 18.5666C13.3302 18.5666 13.5961 19.0254 14.3935 19.0115C15.2201 18.9976 15.7371 18.3163 16.2391 17.6212C16.8152 16.8287 17.0506 16.0641 17.0654 16.0224C17.0506 16.0085 15.4712 15.4382 15.4565 13.7281C15.4417 12.2961 16.6967 11.6149 16.7558 11.5729C16.0471 10.5864 14.9398 10.4751 14.5557 10.4473" fill="black"/>
<path d="M24.4181 8.51147C26.5683 8.51147 28.0658 9.90648 28.0658 11.9374C28.0658 13.9756 26.5375 15.3778 24.3643 15.3778H21.9837V18.9414H20.2637V8.51147H24.4181ZM21.9837 14.0189H23.9572C25.4551 14.0189 26.3071 13.2601 26.3071 11.9446C26.3071 10.6294 25.4548 9.87756 23.9649 9.87756H21.9837V14.0189Z" fill="black"/>
<path d="M28.4922 16.7795C28.4922 15.4424 29.575 14.6763 31.5715 14.5606L33.714 14.4377V13.8594C33.714 13.0141 33.1228 12.5514 32.0708 12.5514C31.2028 12.5514 30.5729 12.9704 30.4429 13.6136H28.8913C28.9377 12.2622 30.289 11.2793 32.1169 11.2793C34.0827 11.2793 35.3652 12.2478 35.3652 13.7512V18.9406H33.7758V17.6902H33.7373C33.2841 18.5068 32.2856 19.0198 31.2028 19.0198C29.6057 19.0198 28.4922 18.1239 28.4922 16.7795ZM33.714 16.1075V15.5219L31.802 15.6375C30.7266 15.7026 30.1664 16.0783 30.1664 16.7359C30.1664 17.3721 30.7499 17.7841 31.6637 17.7841C32.8307 17.7841 33.714 17.0829 33.714 16.1075Z" fill="black"/>
<path d="M36.8282 21.7303V20.4802C36.9357 20.4944 37.1966 20.5088 37.3348 20.5088C38.095 20.5088 38.5251 20.2057 38.7863 19.4247L38.9399 18.9623L36.0293 11.3733H37.8261L39.8537 17.5311H39.8921L41.9194 11.3733H43.6704L40.6523 19.3452C39.961 21.1739 39.1701 21.774 37.4961 21.774C37.3655 21.774 36.9431 21.7595 36.8282 21.7303Z" fill="black"/>
</svg>
