<svg width="50" height="30" viewBox="0 0 50 30" fill="none" xmlns="http://www.w3.org/2000/svg">
<rect x="0.446429" y="0.446429" width="49.1071" height="29.1071" rx="4.01786" fill="#006FCF" stroke="#FFF2F5" stroke-width="0.892857"/>
<path d="M12.6071 13.07L13.5969 15.3731H11.6249L12.6071 13.07ZM33.1643 13.1658H29.3572V14.1811H33.1029V15.7021H29.3649V16.8341H33.172V17.7413L35.8281 14.9852L33.172 12.1124L33.1643 13.1658ZM15.1801 10.293H20.289L21.4233 12.6686L22.4745 10.2856H35.736L37.1146 11.7466L38.5405 10.2856H44.6316L40.1314 15.0147L44.5855 19.7142H38.4037L37.0251 18.2533L35.5864 19.7142H13.9614L13.3296 18.2533H11.8845L11.2515 19.7142H6.25L10.4522 10.2856H14.8386L15.1801 10.293ZM26.2586 11.6164H23.3953L21.477 15.9575L19.3989 11.6164H16.5574V17.5216L13.923 11.6164H11.3743L8.3281 18.3834H10.3167L10.9484 16.9225H14.2683L14.9 18.3834H18.3784V13.5525L20.6177 18.3908H22.1395L24.3647 13.5672V18.392H26.2292L26.2599 11.6152L26.2586 11.6164ZM38.2029 15.0147L41.4396 11.6164H39.1096L37.0622 13.7354L35.0825 11.6164H27.5451V18.3908H34.9751L37.0392 16.2571L39.0188 18.3908H41.4166L38.2029 15.0147Z" fill="white"/>
</svg>
