<svg width="20" height="20" viewBox="0 0 20 20" fill="none" xmlns="http://www.w3.org/2000/svg">
<g clip-path="url(#clip0_653_3386)">
<path fill-rule="evenodd" clip-rule="evenodd" d="M0 0H38.0004V1.53848H0V0ZM0 3.07695H38.0004V4.61543H0V3.07695ZM0 6.15391H38.0004V7.69238H0V6.15391ZM0 9.23086H38.0004V10.7693H0V9.23086ZM0 12.3078H38.0004V13.8463H0V12.3078ZM0 15.3848H38.0004V16.9232H0V15.3848ZM0 18.4617H38.0004V20.0002H0V18.4617Z" fill="#BD3D44"/>
<path fill-rule="evenodd" clip-rule="evenodd" d="M0 1.53809H38.0004V3.07656H0V1.53809ZM0 4.61504H38.0004V6.15352H0V4.61504ZM0 7.69199H38.0004V9.23047H0V7.69199ZM0 10.7689H38.0004V12.3074H0V10.7689ZM0 13.8459H38.0004V15.3844H0V13.8459ZM0 16.9228H38.0004V18.4613H0V16.9228Z" fill="white"/>
<path fill-rule="evenodd" clip-rule="evenodd" d="M0 0H15.2002V10.7693H0V0Z" fill="#192F5D"/>
<path fill-rule="evenodd" clip-rule="evenodd" d="M1.26066 0.461914L1.41449 0.892656H1.84527L1.49141 1.15422L1.62988 1.56961L1.26066 1.30805L0.922188 1.56961L1.06066 1.15422L0.691406 0.892656H1.15301L1.26066 0.461914ZM3.79914 0.461914L3.93762 0.892656H4.38375L4.01453 1.15422L4.16836 1.56961L3.79914 1.30805L3.42992 1.56961L3.58375 1.15422L3.21453 0.892656H3.66066L3.79914 0.461914ZM6.33762 0.461914L6.47609 0.892656H6.92223L6.55301 1.15422L6.70687 1.56961L6.33762 1.30805L5.9684 1.56961L6.12223 1.15422L5.75301 0.892656H6.19918L6.33762 0.461914ZM8.86074 0.461914L9.01457 0.892656H9.44535L9.09148 1.15422L9.22996 1.56961L8.86074 1.30805L8.50687 1.56961L8.64535 1.15422L8.27609 0.892656H8.73766L8.86074 0.461914ZM11.3992 0.461914L11.5377 0.892656H11.9838L11.6146 1.15422L11.7684 1.56961L11.3838 1.30805L11.03 1.56961L11.1684 1.15422L10.7992 0.892656H11.2454L11.3992 0.461914ZM13.9377 0.461914L14.0762 0.892656H14.5223L14.1531 1.15422L14.3069 1.56961L13.9377 1.30805L13.5685 1.56961L13.7223 1.15422L13.3531 0.892656H13.7992L13.9377 0.461914ZM2.53758 1.53883L2.67605 1.96961H3.12223L2.75297 2.23113L2.90684 2.64652L2.53758 2.385L2.16836 2.64652L2.32219 2.23113L1.95297 1.96961H2.39914L2.53758 1.53883ZM5.0607 1.53883L5.21453 1.96961H5.64531L5.29144 2.23113L5.42992 2.64652L5.0607 2.385L4.70684 2.64652L4.84531 2.23113L4.47605 1.96961H4.93762L5.0607 1.53883ZM7.59918 1.53883L7.73766 1.96961H8.18379L7.81457 2.23113L7.9684 2.64652L7.59918 2.385L7.22992 2.64652L7.38379 2.23113L7.01457 1.96961H7.4607L7.59918 1.53883ZM10.1377 1.53883L10.2761 1.96961H10.7223L10.353 2.23113L10.5069 2.64652L10.1377 2.385L9.76844 2.64652L9.92227 2.23113L9.55305 1.96961H9.99922L10.1377 1.53883ZM12.6608 1.53883L12.8146 1.96961H13.23L12.8761 2.23113L13.0146 2.64652L12.6454 2.385L12.2915 2.64652L12.43 2.23113L12.0607 1.96961H12.5223L12.6608 1.53883ZM1.27602 2.61578L1.3991 3.04652H1.86066L1.49141 3.30809L1.62988 3.72348L1.26066 3.46191L0.922188 3.72348L1.06066 3.30809L0.691406 3.04652H1.15301L1.27602 2.61578ZM3.79914 2.61578L3.93762 3.04652H4.38375L4.02992 3.30809L4.16836 3.72348L3.79914 3.46191L3.44527 3.72348L3.58375 3.30809L3.21453 3.04652H3.66066L3.79914 2.61578ZM6.33762 2.61578L6.47609 3.04652H6.92223L6.55301 3.30809L6.70687 3.72348L6.33762 3.46191L5.9684 3.72348L6.12223 3.30809L5.75301 3.04652H6.19918L6.33762 2.61578ZM8.86074 2.61578L9.01457 3.04652H9.44535L9.09148 3.30809L9.22996 3.72348L8.86074 3.46191L8.50687 3.72348L8.64535 3.30809L8.27609 3.04652H8.73766L8.86074 2.61578ZM11.3992 2.61578L11.5377 3.04652H11.9838L11.63 3.30809L11.7684 3.72348L11.3992 3.46191L11.0454 3.72348L11.1838 3.30809L10.8146 3.04652H11.2607L11.3992 2.61578ZM13.9377 2.61578L14.0762 3.04652H14.5223L14.1531 3.30809L14.3069 3.72348L13.9377 3.46191L13.5685 3.72348L13.7223 3.30809L13.3531 3.04652H13.7992L13.9377 2.61578ZM2.53758 3.69266L2.67605 4.12344H3.12223L2.75297 4.38496L2.90684 4.80035L2.53758 4.53883L2.16836 4.80035L2.32219 4.38496L1.95297 4.12344H2.39914L2.53758 3.69266ZM5.0607 3.69266L5.21453 4.12344H5.64531L5.29144 4.38496L5.42992 4.80035L5.0607 4.53883L4.70684 4.80035L4.84531 4.38496L4.47605 4.12344H4.93762L5.0607 3.69266ZM7.59918 3.69266L7.73766 4.12344H8.18379L7.82996 4.38496L7.9684 4.80035L7.59918 4.53883L7.24531 4.80035L7.38379 4.38496L7.01457 4.12344H7.4607L7.59918 3.69266ZM10.1377 3.69266L10.2761 4.12344H10.7223L10.353 4.38496L10.5069 4.80039L10.1377 4.53887L9.76844 4.80039L9.92227 4.385L9.55305 4.12348H9.99922L10.1377 3.69266ZM12.6608 3.69266L12.8146 4.12344H13.23L12.8761 4.38496L13.0146 4.80035L12.6454 4.53883L12.2915 4.80035L12.43 4.38496L12.0607 4.12344H12.5223L12.6608 3.69266ZM1.27602 4.76961L1.3991 5.20035H1.86066L1.49141 5.46191L1.62988 5.87731L1.26066 5.61574L0.922188 5.87731L1.06066 5.46191L0.691406 5.20035H1.15301L1.27602 4.76961ZM3.79914 4.76961L3.93762 5.20035H4.38375L4.02992 5.46191L4.16836 5.87731L3.79914 5.61574L3.44527 5.87731L3.58375 5.46191L3.21453 5.20035H3.66066L3.79914 4.76961ZM6.33762 4.76961L6.47609 5.20035H6.92223L6.55301 5.46191L6.70687 5.87731L6.33762 5.61574L5.9684 5.87731L6.12223 5.46191L5.75301 5.20035H6.19918L6.33762 4.76961ZM8.86074 4.76961L9.01457 5.20035H9.44535L9.09148 5.46191L9.22996 5.87731L8.86074 5.61574L8.50687 5.87731L8.64535 5.46191L8.27609 5.20035H8.73766L8.86074 4.76961ZM11.3992 4.76961L11.5377 5.20035H11.9838L11.63 5.46191L11.7684 5.87731L11.3992 5.61574L11.0454 5.87731L11.1838 5.46191L10.8146 5.20035H11.2607L11.3992 4.76961ZM13.9377 4.76961L14.0762 5.20035H14.5223L14.1531 5.46191L14.3069 5.87731L13.9377 5.61574L13.5685 5.87731L13.7223 5.46191L13.3531 5.20035H13.7992L13.9377 4.76961ZM2.53758 5.84652L2.67605 6.27731H3.12223L2.75297 6.53883L2.90684 6.95422L2.53758 6.6927L2.16836 6.95422L2.32219 6.53883L1.95297 6.27731H2.39914L2.53758 5.84652ZM5.0607 5.84652L5.21453 6.27731H5.64531L5.29144 6.53883L5.42992 6.95422L5.0607 6.6927L4.70684 6.95422L4.84531 6.53883L4.47605 6.27731H4.93762L5.0607 5.84652ZM7.59918 5.84652L7.73766 6.27731H8.18379L7.82996 6.53883L7.9684 6.95422L7.59918 6.6927L7.24531 6.95422L7.38379 6.53883L7.01457 6.27731H7.4607L7.59918 5.84652ZM10.1377 5.84652L10.2761 6.27731H10.7223L10.353 6.53883L10.5069 6.95426L10.1377 6.69273L9.76844 6.95426L9.92227 6.53887L9.55305 6.27734H9.99922L10.1377 5.84652ZM12.6608 5.84652L12.8146 6.27731H13.23L12.8761 6.53883L13.0146 6.95422L12.6454 6.6927L12.2915 6.95422L12.43 6.53883L12.0607 6.27731H12.5223L12.6608 5.84652ZM1.27602 6.92348L1.3991 7.35422H1.86066L1.49141 7.61578L1.62988 8.03117L1.26066 7.76961L0.922188 8.03117L1.06066 7.61578L0.691406 7.35422H1.15301L1.27602 6.92348ZM3.79914 6.92348L3.93762 7.35422H4.38375L4.02992 7.61578L4.16836 8.03117L3.79914 7.76961L3.44527 8.03117L3.58375 7.61578L3.21453 7.35422H3.66066L3.79914 6.92348ZM6.33762 6.92348L6.47609 7.35422H6.92223L6.55301 7.61578L6.70687 8.03117L6.33762 7.76961L5.9684 8.03117L6.12223 7.61578L5.75301 7.35422H6.19918L6.33762 6.92348ZM8.86074 6.92348L9.01457 7.35422H9.44535L9.09148 7.61578L9.22996 8.03117L8.86074 7.76961L8.50687 8.03117L8.64535 7.61578L8.27609 7.35422H8.73766L8.86074 6.92348ZM11.3992 6.92348L11.5377 7.35422H11.9838L11.63 7.61578L11.7684 8.03117L11.3992 7.76961L11.0454 8.03117L11.1838 7.61578L10.8146 7.35422H11.2607L11.3992 6.92348ZM13.9377 6.92348L14.0762 7.35422H14.5223L14.1531 7.61578L14.3069 8.03117L13.9377 7.76961L13.5685 8.03117L13.7223 7.61578L13.3531 7.35422H13.7992L13.9377 6.92348ZM2.53758 8.00043L2.67605 8.43121H3.12223L2.75297 8.69273L2.90684 9.10812L2.53758 8.8466L2.16836 9.10812L2.32219 8.69273L1.95297 8.43121H2.39914L2.53758 8.00043ZM5.0607 8.00043L5.21453 8.43121H5.64531L5.29144 8.69273L5.42992 9.10812L5.0607 8.8466L4.70684 9.10812L4.84531 8.69273L4.47605 8.43121H4.93762L5.0607 8.00043ZM7.59918 8.00043L7.73766 8.43121H8.18379L7.82996 8.69273L7.9684 9.10812L7.59918 8.8466L7.24531 9.10812L7.38379 8.69273L7.01457 8.43121H7.4607L7.59918 8.00043ZM10.1377 8.00043L10.2761 8.43121H10.7223L10.353 8.69273L10.5069 9.10816L10.1377 8.84664L9.76844 9.10816L9.92227 8.69277L9.55305 8.43125H9.99922L10.1377 8.00043ZM12.6608 8.00043L12.8146 8.43121H13.23L12.8761 8.69273L13.0146 9.10812L12.6454 8.8466L12.2915 9.10812L12.43 8.69273L12.0607 8.43121H12.5223L12.6608 8.00043ZM1.27602 9.07738L1.3991 9.50813H1.86066L1.49141 9.76969L1.62988 10.1851L1.26066 9.92352L0.922188 10.1851L1.06066 9.76969L0.691406 9.50813H1.15301L1.27602 9.07738ZM3.79914 9.07738L3.93762 9.50813H4.38375L4.02992 9.76969L4.16836 10.1851L3.79914 9.92352L3.44527 10.1851L3.58375 9.76969L3.21453 9.50813H3.66066L3.79914 9.07738ZM6.33762 9.07738L6.47609 9.50813H6.92223L6.55301 9.76969L6.70687 10.1851L6.33762 9.92352L5.9684 10.1851L6.12223 9.76969L5.75301 9.50813H6.19918L6.33762 9.07738ZM8.86074 9.07738L9.01457 9.50813H9.44535L9.09148 9.76969L9.22996 10.1851L8.86074 9.92352L8.50687 10.1851L8.64535 9.76969L8.27609 9.50813H8.73766L8.86074 9.07738ZM11.3992 9.07738L11.5377 9.50813H11.9838L11.63 9.76969L11.7684 10.1851L11.3992 9.92352L11.0454 10.1851L11.1838 9.76969L10.8146 9.50813H11.2607L11.3992 9.07738ZM13.9377 9.07738L14.0762 9.50813H14.5223L14.1531 9.76969L14.3069 10.1851L13.9377 9.92352L13.5685 10.1851L13.7223 9.76969L13.3531 9.50813H13.7992L13.9377 9.07738Z" fill="white"/>
</g>
<defs>
<clipPath id="clip0_653_3386">
<rect width="20" height="20" rx="10" fill="white"/>
</clipPath>
</defs>
</svg>
